<svg xmlns="http://www.w3.org/2000/svg" viewBox="0 0 720 440" role="img" aria-labelledby="title desc"><title id="title">Ground-penetrating radar</title><desc id="desc">Survey antenna sends pulses into the ground and receives reflections from a buried feature. Illustrative diagram.</desc><defs><linearGradient id="soil" x2="0" y2="1"><stop stop-color="#e1ece9"/><stop offset="1" stop-color="#becfca"/></linearGradient></defs><rect width="720" height="440" fill="#f3f7f5"/><path d="M0 205H720V440H0Z" fill="url(#soil)"/><path d="M0 205H720" stroke="#17485f" stroke-width="3"/><path d="M0 290Q180 268 350 295T720 290M0 365Q160 348 345 370T720 355" fill="none" stroke="#8da9a4" stroke-width="2"/><g fill="none" stroke="#17485f" stroke-width="9" stroke-linecap="round" stroke-linejoin="round"><path d="M306 179L340 108H410L449 177M410 108L435 68H463"/></g><rect x="294" y="171" width="168" height="26" rx="8" fill="#17485f"/><circle cx="316" cy="195" r="16" fill="#17485f"/><circle cx="440" cy="195" r="16" fill="#17485f"/><circle cx="316" cy="195" r="6" fill="#c7dbe3"/><circle cx="440" cy="195" r="6" fill="#c7dbe3"/><path d="M363 211L320 322M378 211L377 322M393 211L433 322" stroke="#086582" stroke-width="3" stroke-dasharray="7 7"/><path d="M316 330Q375 295 438 330M299 343Q375 287 455 343" stroke="#086582" stroke-width="2" fill="none"/><rect x="286" y="338" width="194" height="28" rx="14" fill="#17485f"/><path d="M306 345H454" stroke="#42d2e7" stroke-width="3"/><g font-family="Arial,sans-serif" fill="#17485f"><text x="42" y="55" font-size="14" letter-spacing="2">BELOW THE SURFACE</text><text x="42" y="85" font-size="26">Reflections reveal patterns.</text><text x="506" y="160" font-size="16">Survey antenna</text><text x="503" y="293" font-size="16">Reflected signal</text><text x="42" y="390" font-size="16">Possible buried feature</text></g><g stroke="#586c77" fill="none"><path d="M498 157H461M496 288H417M212 385L287 354"/></g></svg>
