<svg xmlns="http://www.w3.org/2000/svg" viewBox="0 0 720 440" role="img" aria-labelledby="title desc"><title id="title">Hydrographic surveying</title><desc id="desc">Survey boat records acoustic soundings across the underwater bed. Illustrative diagram.</desc><defs><linearGradient id="water" x2="0" y2="1"><stop stop-color="#d9f0f5"/><stop offset="1" stop-color="#8ec5d1"/></linearGradient></defs><rect width="720" height="440" fill="#f0f6fa"/><path d="M0 193Q30 184 60 193T120 193T180 193T240 193T300 193T360 193T420 193T480 193T540 193T600 193T660 193T720 193V440H0Z" fill="url(#water)"/><path d="M0 371Q110 306 235 350T445 361T720 322V440H0Z" fill="#17485f"/><path d="M296 181H453L426 205H322Z" fill="#17485f"/><path d="M333 178V133H398L418 178Z" fill="#fff" stroke="#17485f" stroke-width="3"/><path d="M344 145H389L402 167H344Z" fill="#8ec5d1"/><path d="M369 133V99" stroke="#17485f" stroke-width="4"/><circle cx="369" cy="96" r="6" fill="#086582"/><path d="M375 213L220 344M375 213L277 360M375 213L334 366M375 213L392 368M375 213L453 354M375 213L511 342" stroke="#086582" stroke-width="2" opacity=".75"/><path d="M220 344Q365 390 511 342" fill="none" stroke="#086582" stroke-width="3"/><g fill="#42d2e7"><circle cx="220" cy="344" r="5"/><circle cx="277" cy="360" r="5"/><circle cx="334" cy="366" r="5"/><circle cx="392" cy="368" r="5"/><circle cx="453" cy="354" r="5"/><circle cx="511" cy="342" r="5"/></g><g font-family="Arial,sans-serif" fill="#17485f"><text x="42" y="55" font-size="14" letter-spacing="2">BENEATH THE WATER</text><text x="42" y="85" font-size="26">Soundings shape a depth map.</text><text x="487" y="163" font-size="16">Survey boat</text><text x="42" y="268" font-size="16">Acoustic soundings</text><text x="537" y="297" font-size="16">Bed profile</text></g><g stroke="#586c77" fill="none"><path d="M478 160H415M200 273L272 297M570 306L599 332"/></g></svg>
